<svg width="571.3600463867188px" height="120.8px" xmlns="http://www.w3.org/2000/svg" viewBox="-35.680023193359375 14.600000000000001 571.3600463867188 120.8" style="background: rgba(0, 0, 0, 0);" preserveAspectRatio="xMidYMid"><defs><linearGradient id="editing-shiny-gradient" x1="0.04322727117869957" x2="0.9567727288213004" y1="0.2966316784620999" y2="0.7033683215379001" gradientUnits="objectBoundingBox"><stop offset="0.0" stop-color="#ffb200"></stop><stop offset="0.5" stop-color="#e10057"></stop><stop offset="1.0" stop-color="#5A1A80"></stop></linearGradient><linearGradient id="editing-shiny-gradient2" x1="0" x2="0" y1="0" y2="1"><stop offset="0.2" stop-color="#fff" stop-opacity="0.8"></stop><stop offset="0.8" stop-color="#fff" stop-opacity="0"></stop></linearGradient><filter id="editing-shiny2" x="-100%" y="-100%" width="300%" height="300%"><feMorphology operator="erode" radius="2"></feMorphology></filter><filter id="editing-shiny" x="-100%" y="-100%" width="300%" height="300%"><feFlood flood-color="#fff" result="flood"></feFlood><feConvolveMatrix in="SourceGraphic" result="conv" order="8,8" divisor="1" kernelMatrix="0 0 0 0 0 0 0 0 0 0 0 1 1 0 0 0 0 0 0 1 1 0 0 0 0 0 1 0 0 1 0 0 0 0 1 0 0 1 0 0 0 1 0 0 0 0 1 0 0 1 1 0 0 1 1 0 0 0 0 1 1 0 0 0 "></feConvolveMatrix><feOffset dx="0" dy="4" in="conv" result="offset"></feOffset><feComposite operator="in" in="flood" in2="offset" result="comp"></feComposite><feGaussianBlur in="offset" stdDeviation="3" result="shadow"></feGaussianBlur><feColorMatrix in="shadow" type="matrix" values="0.7 0 0 0 0  0 0.7 0 0 0  0 0 0.7 0 0  0 0 0 0.3 0" result="dark-shadow"></feColorMatrix><feOffset dx="0" dy="4" in="dark-shadow" result="offset-shadow"></feOffset><feOffset dx="0" dy="2" in="conv" result="offset-2"></feOffset><feComposite operator="out" in="offset" in2="offset-2" result="edge-diff"></feComposite><feGaussianBlur in="edge-diff" stdDeviation="1" result="edge-blur"></feGaussianBlur><feColorMatrix in="edge-blur" result="edge-shadow" type="matrix" values="0 0 0 0 0  0 0 0 0 0  0 0 0 0 0  0 0 0 0.5 0"></feColorMatrix><feComposite operator="in" in="edge-shadow" in2="offset" result="edge-shadow-in"></feComposite><feOffset dx="0" dy="1" in="edge-shadow-in" result="edge-shadow-final"></feOffset><feMerge result="out"><feMergeNode in="offset-shadow"></feMergeNode><feMergeNode in="comp"></feMergeNode><feMergeNode in="edge-shadow-final"></feMergeNode><feMergeNode in="SourceGraphic"></feMergeNode></feMerge></filter></defs><g filter="url(#editing-shiny)"><g transform="translate(51.71327018737793, 97.43000030517578)"><path d="M29.18 1.28L29.18 1.28L29.18 1.28Q20.99 1.28 20.22-10.37L20.22-10.37L9.22-10.37L9.22-10.37Q7.94-7.42 7.04-4.86L7.04-4.86L5.38 0L-3.58 0L16.58-42.24L30.34-42.24L33.02-11.14L33.02-11.14Q33.66-4.42 36.22-2.43L36.22-2.43L36.22-2.43Q34.37 1.28 29.18 1.28ZM14.72-23.17L11.20-15.04L20.03-15.04L19.26-31.49L19.26-33.22L14.72-23.17ZM45.38 0L38.02 0L49.60-42.24L62.98-42.24L65.92-18.11L77.82-42.24L89.02-42.24L90.18-10.62L90.18-10.62Q90.43-4.35 93.50-2.43L93.50-2.43L93.50-2.43Q92.80-1.15 90.75 0.06L90.75 0.06L90.75 0.06Q88.70 1.28 85.98 1.28L85.98 1.28L85.98 1.28Q83.26 1.28 81.66 0.51L81.66 0.51L81.66 0.51Q80.06-0.26 79.17-1.54L79.17-1.54L79.17-1.54Q77.57-3.84 77.57-8.26L77.57-8.26L77.57-28.03L64.96 0L57.02 0L52.54-28.74L45.38 0ZM124.35 1.28L124.35 1.28L124.35 1.28Q116.16 1.28 115.39-10.37L115.39-10.37L104.38-10.37L104.38-10.37Q103.10-7.42 102.21-4.86L102.21-4.86L100.54 0L91.58 0L111.74-42.24L125.50-42.24L128.19-11.14L128.19-11.14Q128.83-4.42 131.39-2.43L131.39-2.43L131.39-2.43Q129.54 1.28 124.35 1.28ZM109.89-23.17L106.37-15.04L115.20-15.04L114.43-31.49L114.43-33.22L109.89-23.17ZM148.64 0.16L148.64 0.16L148.64 0.16Q145.22-0.45 143.42-0.70L143.42-0.70L143.42-0.70Q141.63-0.96 139.74-0.96L139.74-0.96L139.74-0.96Q137.86-0.96 136.90 0L136.90 0L136.90 0Q135.42-1.09 134.66-4.54L134.66-4.54L134.66-4.54Q134.40-5.50 134.40-7.10L134.40-7.10L134.40-7.10Q134.40-10.56 138.37-13.95L138.37-13.95L158.34-30.34L158.34-30.34Q150.08-31.68 146.75-31.68L146.75-31.68L146.75-31.68Q143.42-31.68 140.35-30.21L140.35-30.21L140.35-30.21Q138.62-33.02 138.62-36.29L138.62-36.29L138.62-36.29Q138.62-39.55 141.02-41.22L141.02-41.22L141.02-41.22Q143.42-42.88 147.46-42.88L147.46-42.88L147.46-42.88Q149.25-42.88 151.17-42.62L151.17-42.62L151.17-42.62Q153.09-42.37 155.01-42.11L155.01-42.11L158.78-41.54L158.78-41.54Q160.64-41.28 163.04-41.28L163.04-41.28L163.04-41.28Q165.44-41.28 168.13-41.92L168.13-41.92L168.13-41.92Q170.69-39.68 170.69-35.97L170.69-35.97L170.69-35.97Q170.69-31.49 167.62-29.06L167.62-29.06L145.86-11.65L145.86-11.65Q150.53-10.37 158.27-10.37L158.27-10.37L158.27-10.37Q162.11-10.37 164.54-12.29L164.54-12.29L164.54-12.29Q165.63-10.88 165.92-9.70L165.92-9.70L165.92-9.70Q166.21-8.51 166.21-6.82L166.21-6.82L166.21-6.82Q166.21-5.12 165.63-3.74L165.63-3.74L165.63-3.74Q165.06-2.37 163.84-1.34L163.84-1.34L163.84-1.34Q161.41 0.77 156.03 0.77L156.03 0.77L156.03 0.77Q152.06 0.77 148.64 0.16ZM172.99-15.62L172.99-15.62L172.99-15.62Q172.99-27.71 179.26-35.33L179.26-35.33L179.26-35.33Q185.92-43.58 197.50-43.58L197.50-43.58L197.50-43.58Q205.89-43.58 210.11-39.52L210.11-39.52L210.11-39.52Q214.34-35.46 214.34-26.88L214.34-26.88L214.34-26.88Q214.34-13.82 207.68-6.21L207.68-6.21L207.68-6.21Q201.09 1.28 190.02 1.28L190.02 1.28L190.02 1.28Q181.38 1.28 177.18-3.04L177.18-3.04L177.18-3.04Q172.99-7.36 172.99-15.62ZM189.82-28.86L189.82-28.86L189.82-28.86Q186.94-17.34 186.94-8.26L186.94-8.26L186.94-8.26Q186.94-6.08 187.68-4.67L187.68-4.67L187.68-4.67Q188.42-3.26 190.37-3.26L190.37-3.26L190.37-3.26Q192.32-3.26 193.54-4.19L193.54-4.19L193.54-4.19Q194.75-5.12 195.71-7.23L195.71-7.23L195.71-7.23Q197.25-10.69 198.69-18.02L198.69-18.02L198.69-18.02Q200.13-25.34 200.26-28.38L200.26-28.38L200.26-28.38Q200.38-31.42 200.38-33.73L200.38-33.73L200.38-33.73Q200.38-36.03 199.68-37.50L199.68-37.50L199.68-37.50Q198.98-38.98 197.09-38.98L197.09-38.98L197.09-38.98Q195.20-38.98 193.92-37.82L193.92-37.82L193.92-37.82Q191.55-35.65 189.82-28.86ZM224.06 0L217.02 0L224.70-42.24L238.46-42.24L248.45-13.18L253.76-42.24L260.86-42.18L253.06 0L238.40 0L229.18-27.97L224.06 0ZM275.01-0.32L275.01-0.32L283.07-42.24L283.07-42.24Q290.62-42.88 295.49-42.88L295.49-42.88L295.49-42.88Q300.35-42.88 303.49-42.46L303.49-42.46L303.49-42.46Q306.62-42.05 308.74-40.96L308.74-40.96L308.74-40.96Q312.96-38.91 312.96-33.28L312.96-33.28L312.96-33.28Q312.96-30.02 310.14-27.26L310.14-27.26L310.14-27.26Q307.52-24.77 304.64-24.19L304.64-24.19L304.64-24.19Q307.71-23.68 309.89-21.38L309.89-21.38L309.89-21.38Q312.19-18.94 312.19-15.17L312.19-15.17L312.19-15.17Q312.19-7.87 306.75-3.62L306.75-3.62L306.75-3.62Q301.31 0.64 290.62 0.64L290.62 0.64L290.62 0.64Q283.26 0.64 275.01-0.32ZM292.42-20.61L289.22-4.03L289.22-4.03Q289.79-3.97 289.92-3.97L289.92-3.97L290.50-3.97L290.50-3.97Q295.74-3.97 297.98-7.42L297.98-7.42L297.98-7.42Q299.65-10.11 299.65-15.04L299.65-15.04L299.65-15.04Q299.65-17.66 297.95-19.07L297.95-19.07L297.95-19.07Q296.26-20.48 292.42-20.61L292.42-20.61ZM302.14-33.22L302.14-33.22L302.14-33.22Q302.14-38.53 297.02-38.53L297.02-38.53L296.45-38.53L296.45-38.53Q296.19-38.53 295.81-38.46L295.81-38.46L293.25-24.96L293.89-24.96L293.89-24.96Q302.14-25.15 302.14-33.22ZM317.63-9.47L317.63-9.47L317.63-9.47Q317.63-11.97 318.27-15.17L318.27-15.17L323.46-42.24L337.60-42.24L332.48-14.98L332.48-14.98Q331.90-11.97 331.90-9.76L331.90-9.76L331.90-9.76Q331.90-7.55 332.83-6.40L332.83-6.40L332.83-6.40Q333.76-5.25 335.49-5.25L335.49-5.25L335.49-5.25Q337.22-5.25 338.30-5.70L338.30-5.70L338.30-5.70Q339.39-6.14 340.29-7.23L340.29-7.23L340.29-7.23Q342.02-9.41 343.10-14.98L343.10-14.98L348.29-42.24L357.95-42.24L352.83-15.04L352.83-15.04Q351.04-5.95 346.11-2.30L346.11-2.30L346.11-2.30Q341.31 1.28 331.84 1.28L331.84 1.28L331.84 1.28Q324.74 1.28 320.96-1.79L320.96-1.79L320.96-1.79Q317.63-4.48 317.63-9.47ZM365.31 0L369.02-18.82L369.02-18.82Q367.17-36.16 360.64-39.87L360.64-39.87L360.64-39.87Q361.98-41.54 364.16-42.46L364.16-42.46L364.16-42.46Q366.34-43.39 368.96-43.39L368.96-43.39L368.96-43.39Q371.58-43.39 373.57-42.46L373.57-42.46L373.57-42.46Q375.55-41.54 376.83-39.55L376.83-39.55L376.83-39.55Q379.26-35.78 379.26-26.75L379.26-26.75L379.26-22.14L379.26-22.14Q383.10-33.41 386.94-38.27L386.94-38.27L386.94-38.27Q390.85-43.26 395.71-43.26L395.71-43.26L395.71-43.26Q397.63-43.26 398.91-42.27L398.91-42.27L398.91-42.27Q400.19-41.28 400.83-39.81L400.83-39.81L400.83-39.81Q395.90-37.63 391.17-31.36L391.17-31.36L391.17-31.36Q386.43-25.09 383.36-16.32L383.36-16.32L379.58 0L365.31 0Z" fill="url(#editing-shiny-gradient)"></path></g></g><g filter="url(#editing-shiny2)"><g transform="translate(51.899614334106445, 97.43000411987305)"><path d="M29.18 1.28L29.18 1.28L29.18 1.28Q20.99 1.28 20.22-10.37L20.22-10.37L9.22-10.37L9.22-10.37Q7.94-7.42 7.04-4.86L7.04-4.86L5.38 0L-3.58 0L16.58-42.24L30.34-42.24L33.02-11.14L33.02-11.14Q33.66-4.42 36.22-2.43L36.22-2.43L36.22-2.43Q34.37 1.28 29.18 1.28ZM14.72-23.17L11.20-15.04L20.03-15.04L19.26-31.49L19.26-33.22L14.72-23.17ZM45.38 0L38.02 0L49.60-42.24L62.98-42.24L65.92-18.11L77.82-42.24L89.02-42.24L90.18-10.62L90.18-10.62Q90.43-4.35 93.50-2.43L93.50-2.43L93.50-2.43Q92.80-1.15 90.75 0.06L90.75 0.06L90.75 0.06Q88.70 1.28 85.98 1.28L85.98 1.28L85.98 1.28Q83.26 1.28 81.66 0.51L81.66 0.51L81.66 0.51Q80.06-0.26 79.17-1.54L79.17-1.54L79.17-1.54Q77.57-3.84 77.57-8.26L77.57-8.26L77.57-28.03L64.96 0L57.02 0L52.54-28.74L45.38 0ZM124.35 1.28L124.35 1.28L124.35 1.28Q116.16 1.28 115.39-10.37L115.39-10.37L104.38-10.37L104.38-10.37Q103.10-7.42 102.21-4.86L102.21-4.86L100.54 0L91.58 0L111.74-42.24L125.50-42.24L128.19-11.14L128.19-11.14Q128.83-4.42 131.39-2.43L131.39-2.43L131.39-2.43Q129.54 1.28 124.35 1.28ZM109.89-23.17L106.37-15.04L115.20-15.04L114.43-31.49L114.43-33.22L109.89-23.17ZM148.64 0.16L148.64 0.16L148.64 0.16Q145.22-0.45 143.42-0.70L143.42-0.70L143.42-0.70Q141.63-0.96 139.74-0.96L139.74-0.96L139.74-0.96Q137.86-0.96 136.90 0L136.90 0L136.90 0Q135.42-1.09 134.66-4.54L134.66-4.54L134.66-4.54Q134.40-5.50 134.40-7.10L134.40-7.10L134.40-7.10Q134.40-10.56 138.37-13.95L138.37-13.95L158.34-30.34L158.34-30.34Q150.08-31.68 146.75-31.68L146.75-31.68L146.75-31.68Q143.42-31.68 140.35-30.21L140.35-30.21L140.35-30.21Q138.62-33.02 138.62-36.29L138.62-36.29L138.62-36.29Q138.62-39.55 141.02-41.22L141.02-41.22L141.02-41.22Q143.42-42.88 147.46-42.88L147.46-42.88L147.46-42.88Q149.25-42.88 151.17-42.62L151.17-42.62L151.17-42.62Q153.09-42.37 155.01-42.11L155.01-42.11L158.78-41.54L158.78-41.54Q160.64-41.28 163.04-41.28L163.04-41.28L163.04-41.28Q165.44-41.28 168.13-41.92L168.13-41.92L168.13-41.92Q170.69-39.68 170.69-35.97L170.69-35.97L170.69-35.97Q170.69-31.49 167.62-29.06L167.62-29.06L145.86-11.65L145.86-11.65Q150.53-10.37 158.27-10.37L158.27-10.37L158.27-10.37Q162.11-10.37 164.54-12.29L164.54-12.29L164.54-12.29Q165.63-10.88 165.92-9.70L165.92-9.70L165.92-9.70Q166.21-8.51 166.21-6.82L166.21-6.82L166.21-6.82Q166.21-5.12 165.63-3.74L165.63-3.74L165.63-3.74Q165.06-2.37 163.84-1.34L163.84-1.34L163.84-1.34Q161.41 0.77 156.03 0.77L156.03 0.77L156.03 0.77Q152.06 0.77 148.64 0.16ZM172.99-15.62L172.99-15.62L172.99-15.62Q172.99-27.71 179.26-35.33L179.26-35.33L179.26-35.33Q185.92-43.58 197.50-43.58L197.50-43.58L197.50-43.58Q205.89-43.58 210.11-39.52L210.11-39.52L210.11-39.52Q214.34-35.46 214.34-26.88L214.34-26.88L214.34-26.88Q214.34-13.82 207.68-6.21L207.68-6.21L207.68-6.21Q201.09 1.28 190.02 1.28L190.02 1.28L190.02 1.28Q181.38 1.28 177.18-3.04L177.18-3.04L177.18-3.04Q172.99-7.36 172.99-15.62ZM189.82-28.86L189.82-28.86L189.82-28.86Q186.94-17.34 186.94-8.26L186.94-8.26L186.94-8.26Q186.94-6.08 187.68-4.67L187.68-4.67L187.68-4.67Q188.42-3.26 190.37-3.26L190.37-3.26L190.37-3.26Q192.32-3.26 193.54-4.19L193.54-4.19L193.54-4.19Q194.75-5.12 195.71-7.23L195.71-7.23L195.71-7.23Q197.25-10.69 198.69-18.02L198.69-18.02L198.69-18.02Q200.13-25.34 200.26-28.38L200.26-28.38L200.26-28.38Q200.38-31.42 200.38-33.73L200.38-33.73L200.38-33.73Q200.38-36.03 199.68-37.50L199.68-37.50L199.68-37.50Q198.98-38.98 197.09-38.98L197.09-38.98L197.09-38.98Q195.20-38.98 193.92-37.82L193.92-37.82L193.92-37.82Q191.55-35.65 189.82-28.86ZM224.06 0L217.02 0L224.70-42.24L238.46-42.24L248.45-13.18L253.76-42.24L260.86-42.18L253.06 0L238.40 0L229.18-27.97L224.06 0ZM275.01-0.32L275.01-0.32L283.07-42.24L283.07-42.24Q290.62-42.88 295.49-42.88L295.49-42.88L295.49-42.88Q300.35-42.88 303.49-42.46L303.49-42.46L303.49-42.46Q306.62-42.05 308.74-40.96L308.74-40.96L308.74-40.96Q312.96-38.91 312.96-33.28L312.96-33.28L312.96-33.28Q312.96-30.02 310.14-27.26L310.14-27.26L310.14-27.26Q307.52-24.77 304.64-24.19L304.64-24.19L304.64-24.19Q307.71-23.68 309.89-21.38L309.89-21.38L309.89-21.38Q312.19-18.94 312.19-15.17L312.19-15.17L312.19-15.17Q312.19-7.87 306.75-3.62L306.75-3.62L306.75-3.62Q301.31 0.64 290.62 0.64L290.62 0.64L290.62 0.64Q283.26 0.64 275.01-0.32ZM292.42-20.61L289.22-4.03L289.22-4.03Q289.79-3.97 289.92-3.97L289.92-3.97L290.50-3.97L290.50-3.97Q295.74-3.97 297.98-7.42L297.98-7.42L297.98-7.42Q299.65-10.11 299.65-15.04L299.65-15.04L299.65-15.04Q299.65-17.66 297.95-19.07L297.95-19.07L297.95-19.07Q296.26-20.48 292.42-20.61L292.42-20.61ZM302.14-33.22L302.14-33.22L302.14-33.22Q302.14-38.53 297.02-38.53L297.02-38.53L296.45-38.53L296.45-38.53Q296.19-38.53 295.81-38.46L295.81-38.46L293.25-24.96L293.89-24.96L293.89-24.96Q302.14-25.15 302.14-33.22ZM317.63-9.47L317.63-9.47L317.63-9.47Q317.63-11.97 318.27-15.17L318.27-15.17L323.46-42.24L337.60-42.24L332.48-14.98L332.48-14.98Q331.90-11.97 331.90-9.76L331.90-9.76L331.90-9.76Q331.90-7.55 332.83-6.40L332.83-6.40L332.83-6.40Q333.76-5.25 335.49-5.25L335.49-5.25L335.49-5.25Q337.22-5.25 338.30-5.70L338.30-5.70L338.30-5.70Q339.39-6.14 340.29-7.23L340.29-7.23L340.29-7.23Q342.02-9.41 343.10-14.98L343.10-14.98L348.29-42.24L357.95-42.24L352.83-15.04L352.83-15.04Q351.04-5.95 346.11-2.30L346.11-2.30L346.11-2.30Q341.31 1.28 331.84 1.28L331.84 1.28L331.84 1.28Q324.74 1.28 320.96-1.79L320.96-1.79L320.96-1.79Q317.63-4.48 317.63-9.47ZM365.31 0L369.02-18.82L369.02-18.82Q367.17-36.16 360.64-39.87L360.64-39.87L360.64-39.87Q361.98-41.54 364.16-42.46L364.16-42.46L364.16-42.46Q366.34-43.39 368.96-43.39L368.96-43.39L368.96-43.39Q371.58-43.39 373.57-42.46L373.57-42.46L373.57-42.46Q375.55-41.54 376.83-39.55L376.83-39.55L376.83-39.55Q379.26-35.78 379.26-26.75L379.26-26.75L379.26-22.14L379.26-22.14Q383.10-33.41 386.94-38.27L386.94-38.27L386.94-38.27Q390.85-43.26 395.71-43.26L395.71-43.26L395.71-43.26Q397.63-43.26 398.91-42.27L398.91-42.27L398.91-42.27Q400.19-41.28 400.83-39.81L400.83-39.81L400.83-39.81Q395.90-37.63 391.17-31.36L391.17-31.36L391.17-31.36Q386.43-25.09 383.36-16.32L383.36-16.32L379.58 0L365.31 0Z" fill="url(#editing-shiny-gradient2)"></path></g></g><style>text {
  font-size: 64px;
  font-family: Arial Black;
  dominant-baseline: central;
  text-anchor: middle;
}</style></svg>